<?xml version="1.0" encoding="utf-8"?>
<!-- Generator: Adobe Illustrator 23.0.5, SVG Export Plug-In . SVG Version: 6.00 Build 0)  -->
<svg version="1.1" id="Capa_1" xmlns="http://www.w3.org/2000/svg" xmlns:xlink="http://www.w3.org/1999/xlink" x="0px" y="0px" viewBox="0 0 556.7 241.5" style="enable-background: new 0 0 556.7 241.5" xml:space="preserve">
<style>.st0 {
  fill: none;
}

</style>
<g>
	<g>
		<path d="M0,160.3c1.8-19.8,5.5-39.1,11.3-58.1c1.5-4.7,3.2-9.4,4.9-14c1.8-4.7,3.8-9.3,6-13.7c4.3-9,9.5-17.7,15.5-25.6
			s13.1-15.2,21-20.8c3.9-2.9,8-5.3,12.2-7.5s8.5-3.8,12.8-5.2c8.7-2.7,17.4-3.7,25.9-3.8c8.5,0,16.7,1,24.6,2.7
			C150,17.5,164.4,23.1,178,29c6.7,2.9,13.3,6,19.7,9.1l18.6,9c12.1,5.7,23.5,10.9,34,14.4c5.3,1.8,10.3,3.2,15.1,4
			c4.7,0.9,9.2,1.3,13.4,1.3s8.7-0.6,13.5-1.6c4.8-0.9,9.9-2.5,15.1-4.4c10.6-3.7,22.1-9.1,34-15l18.6-9.1
			c6.4-3.2,12.9-6.2,19.7-9.3c13.5-6,28-11.8,43.9-15.2c7.9-1.8,16.2-2.7,24.8-2.7c8.5,0.1,17.4,1.3,26.2,4.1
			c4.4,1.3,8.7,3.2,12.9,5.5s8.3,4.9,12.2,7.8c7.8,6,14.7,13.4,20.7,21.5s10.9,17,15.1,26.1s7.6,18.6,10.4,28
			c5.6,19,9.1,38.5,10.8,58.2c-10-14.1-19.5-27.7-29.6-39.4c-10-11.6-20.3-21.1-30.2-26.5c-5-2.8-9.9-4.4-14.6-5.3
			c-2.4-0.4-4.7-0.6-7-0.6s-4.6,0.1-6.9,0.4c-4.6,0.7-9.2,2.1-14.1,4c-4.8,1.9-9.8,4.4-14.8,7.2c-10.2,5.9-20.9,13.3-32.1,21.5
			c-5.7,4-11.4,8.4-17.3,12.5l-9,6.5l-9.3,6.3c-12.7,8.5-26.4,16.8-41.6,23.4c-7.6,3.4-15.5,6.2-24.1,8.4
			c-8.4,2.1-17.3,3.4-26.5,3.5s-18.2-1-26.7-2.9c-8.5-2.1-16.6-4.7-24.3-7.8c-15.3-6.5-29.1-14.4-41.9-22.8l-9.5-6.3l-9.1-6.3
			c-6-4.1-11.8-8.4-17.5-12.4c-11.3-8.1-22.2-15.5-32.5-21.4c-5.1-2.8-10.2-5.5-15-7.4c-4.8-2.1-9.6-3.4-14.3-4.3
			c-1.2-0.1-2.3-0.3-3.5-0.4s-2.3-0.1-3.5-0.1c-2.3,0-4.7,0.1-7,0.4c-4.7,0.7-9.7,2.4-14.7,4.9C50,101,39.6,109.9,29.5,121.3
			C19.8,132.9,10,146.3,0,160.3z"></path>
	</g>
	<g>
		<path d="M17.5,230.5c-1.4-8.5-1.9-16.4-2.1-24c-0.1-7.7,0.1-15,0.8-22.3c0.3-3.5,0.7-7.1,1.3-10.6s1.1-6.9,1.8-10.3
			c0.6-3.4,1.5-6.8,2.2-10c0.8-3.2,1.8-6.6,2.8-9.7c1.1-3.2,2.1-6.5,3.4-9.6c1.3-3.1,2.5-6.2,3.9-9.3c1.5-3.1,2.9-6,4.5-9
			c1.5-2.9,3.4-5.7,5-8.7C48.2,95.8,57,85.5,67.5,77.4c1.4-1,2.6-2.1,4-2.9l4.1-2.7c2.7-1.8,5.7-3.1,8.5-4.6
			c1.5-0.7,2.9-1.2,4.4-1.8c1.5-0.6,2.9-1.2,4.4-1.5c2.9-0.9,5.9-1.6,8.8-2.1c5.9-1,11.3-1,16.5-0.6c1.3,0.1,2.5,0.3,3.8,0.4
			s2.4,0.4,3.6,0.7c2.4,0.4,4.6,1.2,6.8,1.9c8.6,2.9,15.9,7.4,23.8,12.1l3,1.8c1.1,0.6,2.1,1.2,3.2,1.8c2.2,1.3,4.4,2.4,6.7,3.7
			c0.6,0.3,1.2,0.7,1.8,0.9c0.6,0.3,1.2,0.6,1.8,0.9l3.8,1.9c2.6,1.3,5.3,2.5,8.3,4.1c-0.8,4.3-1.9,8.1-3.2,11.9
			c-1.4,3.5-2.7,7.4-4.3,10.6c-1.7,3.2-3.4,6.6-5.3,9.4c-0.9,1.5-1.9,2.9-2.9,4.4c-1.1,1.3-2,2.7-3,4c-2.1,2.7-4.3,5-6.5,7.4
			c-1.1,1.2-2.2,2.2-3.4,3.2l-1.7,1.6l-1.7,1.5c-1.2,0.9-2.2,1.9-3.4,2.8l-3.3,2.5l-3.4,2.2c-1.1,0.7-2.1,1.5-3.2,2.2l-11,7.5
			c-3.2,2.2-6.1,4.3-8.4,6.2c-4.9,3.7-8.6,6.9-13,10.2c-4.4,3.4-9.3,7.1-15.1,11.3l-2.2,1.6l-1.2,0.7l-1.2,0.9
			c-1.6,1.2-3.2,2.4-4.7,3.4c-3.3,2.5-6.7,4.6-10.3,7.2c-7.2,4.7-15.2,9.7-24.3,14.3c-4.5,2.4-9.2,4.6-14.3,6.5
			C29.1,227.2,23.7,229.2,17.5,230.5z"></path>
	</g>
	<g>
		<path class="st0" d="M378.1,39.7"></path>
	</g>
	<g>
		<path d="M94.1,230.9c-1.4-8.5-1.9-16.4-2.1-24c-0.1-7.7,0.1-15,0.8-22.3c0.3-3.5,0.7-7.1,1.3-10.6c0.5-3.5,1.1-6.9,1.8-10.3
			c0.6-3.4,1.5-6.8,2.2-10c0.8-3.2,1.8-6.6,2.8-9.7c1.1-3.2,2.1-6.5,3.4-9.6s2.5-6.2,3.9-9.3c1.5-3.1,2.9-6,4.5-9
			c1.5-2.9,3.4-5.7,5-8.7c7.1-11.2,15.9-21.5,26.4-29.6c1.4-1,2.6-2.1,4-2.9l4.1-2.7c2.7-1.8,5.7-3.1,8.5-4.6
			c1.5-0.7,2.9-1.2,4.4-1.8c1.5-0.6,2.9-1.2,4.4-1.5c2.9-0.9,5.9-1.6,8.8-2.1c5.9-1,11.3-1,16.5-0.6c1.3,0.1,2.5,0.3,3.8,0.4
			s2.4,0.4,3.6,0.7c2.4,0.4,4.6,1.2,6.8,1.9c8.6,2.9,15.9,7.4,23.8,12.1l3,1.8c1.1,0.6,2.1,1.2,3.2,1.8c2.2,1.3,4.4,2.4,6.7,3.7
			c0.6,0.3,1.2,0.7,1.8,0.9c0.6,0.3,1.2,0.6,1.8,0.9l3.8,1.9c2.6,1.3,5.3,2.5,8.3,4.1c-0.8,4.3-1.9,8.1-3.2,11.9
			c-1.4,3.5-2.7,7.4-4.3,10.6c-1.7,3.2-3.4,6.6-5.3,9.4c-0.9,1.5-1.9,2.9-2.9,4.4c-1.1,1.3-2,2.7-3,4c-2.1,2.7-4.3,5-6.5,7.4
			c-1.1,1.2-2.2,2.2-3.4,3.2l-1.7,1.6l-1.7,1.5c-1.2,0.9-2.2,1.9-3.4,2.8l-3.3,2.5l-3.3,2.4c-1.1,0.7-2.1,1.5-3.2,2.2l-11,7.5
			c-3.2,2.2-6.1,4.3-8.4,6.2c-4.9,3.7-8.6,6.9-13,10.2c-4.4,3.4-9.3,7.1-15.1,11.3l-2.2,1.6l-1.2,0.7l-1.2,0.9
			c-1.6,1.2-3.2,2.4-4.7,3.4c-3.3,2.5-6.7,4.6-10.3,7.2c-7.2,4.7-15.2,9.7-24.3,14.3c-4.5,2.4-9.2,4.6-14.3,6.5
			C105.6,227.8,100.3,229.7,94.1,230.9z"></path>
	</g>
	<g>
		<path d="M171.8,241.5c-1.4-8.5-1.9-16.4-2.1-24c-0.1-7.7,0.1-15,0.8-22.3c0.3-3.5,0.7-7.1,1.3-10.6c0.5-3.5,1.1-6.9,1.8-10.3
			c0.6-3.4,1.5-6.8,2.2-10c0.8-3.2,1.8-6.6,2.8-9.7c1.1-3.2,2.1-6.5,3.4-9.6c1.3-3.1,2.5-6.2,3.9-9.3c1.5-3.1,2.9-6,4.5-9
			c1.5-2.9,3.4-5.7,5-8.7c7.1-11.2,15.9-21.5,26.4-29.6c1.4-1,2.6-2.1,4-2.9l4.1-2.7c2.7-1.8,5.7-3.1,8.5-4.6
			c1.5-0.7,2.9-1.2,4.4-1.8c1.5-0.6,2.9-1.2,4.4-1.5c2.9-0.9,5.9-1.6,8.8-2.1c5.9-1,11.3-1,16.5-0.6c1.3,0.1,2.5,0.3,3.8,0.4
			s2.4,0.4,3.6,0.7c2.4,0.4,4.6,1.2,6.8,1.9c8.6,2.9,15.9,7.4,23.8,12.1l3,1.8c1.1,0.6,2.1,1.2,3.2,1.8c2.2,1.3,4.4,2.4,6.7,3.7
			c0.6,0.3,1.2,0.7,1.8,0.9c0.6,0.3,1.2,0.6,1.8,0.9l3.8,1.9c2.6,1.3,5.3,2.5,8.3,4.1c-0.8,4.3-1.9,8.1-3.2,11.9
			c-1.4,3.5-2.7,7.4-4.3,10.6c-1.7,3.2-3.4,6.6-5.3,9.4c-0.9,1.5-1.9,2.9-2.9,4.4c-1.1,1.3-2,2.7-3,4c-2.1,2.7-4.3,5-6.5,7.4
			c-1.1,1.2-2.2,2.2-3.4,3.2l-1.7,1.6l-1.7,1.5c-1.2,0.9-2.2,1.9-3.4,2.8l-3.3,2.5l-3.3,2.4c-1.1,0.7-2.1,1.5-3.2,2.2l-11,7.5
			c-3.2,2.2-6.1,4.3-8.4,6.2c-4.9,3.7-8.6,6.9-13,10.2c-4.4,3.4-9.3,7.1-15.1,11.3l-2.2,1.6l-1.2,0.7l-1.2,0.9
			c-1.6,1.2-3.2,2.4-4.7,3.4c-3.3,2.5-6.7,4.6-10.3,7.2c-7.2,4.7-15.2,9.7-24.3,14.3c-4.5,2.4-9.2,4.6-14.3,6.5
			C183.4,238.3,178,240.2,171.8,241.5z"></path>
	</g>
	<g>
		<path d="M234,233.6c0.3-3.4,0.9-6.6,1.6-9.7c0.6-3.1,1.4-6.2,2.2-9.3c0.8-2.9,1.8-5.9,2.8-8.7c1.1-2.8,2-5.7,3.3-8.4
			c1.2-2.8,2.4-5.5,3.8-8.1c0.6-1.3,1.4-2.7,2.1-3.8c0.7-1.3,1.5-2.5,2.2-3.8c0.7-1.2,1.5-2.5,2.3-3.7s1.7-2.4,2.5-3.5l2.5-3.4
			c0.8-1.2,1.9-2.2,2.8-3.2l2.8-3.1c1.1-0.9,2.1-1.9,3.2-2.8l1.6-1.3c0.5-0.4,1.1-0.9,1.6-1.3c1.2-0.7,2.2-1.6,3.4-2.2
			c4.5-2.8,9.2-4.7,13.5-5.7c4.3-1.2,8.4-1.8,12.6-2.8l1.6-0.3c0.5-0.1,1.1-0.3,1.6-0.4c1.1-0.3,2.1-0.6,3.3-0.7
			c2.2-0.6,4.4-1.2,6.9-1.6c-1.2,2.9-2.4,5.9-3.9,8.5c-1.5,2.5-3,5.2-4.8,7.4c-0.8,1.2-1.8,2.2-2.7,3.2c-0.9,1-1.9,2.1-2.8,2.9
			c-0.9,1-1.9,1.8-2.8,2.7l-2.8,2.5c-3.8,3.2-7,5.9-10.2,8.8c-1.5,1.5-3,2.8-4.5,4.4l-2.2,2.2l-2.2,2.5c-0.7,0.9-1.5,1.6-2.3,2.5
			c-0.7,0.9-1.5,1.8-2.2,2.7s-1.5,1.8-2.3,2.5l-2.4,3.4c-1.5,1.9-3.2,3.5-4.7,5.5c-1.6,1.9-3.2,3.7-4.8,5.6c-1.7,1.8-3.4,3.7-5,5.6
			c-1.7,1.9-3.6,3.5-5.4,5.3s-3.7,3.5-5.7,5.3C238.3,230.5,236.2,232.2,234,233.6z"></path>
	</g>
</g>
<g>
	<path d="M328.3,232.2c-2.2-1.6-4.1-3.5-6-5.5c-1.9-1.9-3.7-3.8-5.5-5.9c-1.8-1.9-3.5-3.8-5.1-5.9c-1.7-2.1-3.3-4.1-4.8-6
		c-1.6-1.9-3.2-4-4.6-6c-1.5-2.1-3-4-4.5-5.9l-2.2-2.9c-0.7-0.9-1.5-1.9-2.2-2.8c-0.7-0.9-1.5-1.9-2.1-2.9c-0.7-1-1.5-1.8-2.2-2.7
		l-2.1-2.8c-0.7-0.9-1.5-1.6-2.2-2.5c-1.4-1.8-2.9-3.4-4.3-5c-3-3.2-6.1-6.3-9.8-10l-2.7-2.8c-0.9-1-1.8-1.9-2.7-3.1
		c-0.9-1-1.8-2.2-2.7-3.2c-0.8-1.2-1.7-2.4-2.5-3.5c-1.7-2.4-3.2-5.2-4.5-8c-1.4-2.8-2.5-5.9-3.5-9c2.5,0.6,4.7,1.5,6.8,2.4
		c1.2,0.3,2.2,0.7,3.3,1c0.5,0.1,1.1,0.4,1.6,0.6l1.6,0.4c4.1,1.5,8.3,2.5,12.5,4.1c4.3,1.6,8.9,4,13.3,7.2c1.1,0.9,2.2,1.8,3.3,2.7
		c0.5,0.4,1.1,0.9,1.6,1.5l1.5,1.5c1.1,1,2,2.1,2.9,3.1l2.7,3.4c0.8,1.2,1.8,2.4,2.6,3.5l2.4,3.7c0.7,1.3,1.6,2.5,2.3,3.8
		c0.7,1.3,1.5,2.7,2.1,4c0.7,1.3,1.4,2.7,2,4s1.4,2.7,1.9,4.1c1.2,2.8,2.3,5.6,3.4,8.4c1.2,2.8,2,5.7,2.8,8.7s1.7,6,2.4,9
		c0.6,3.1,1.3,6.2,1.8,9.4C327.7,225.6,328.1,228.9,328.3,232.2z"></path>
</g>
<g>
	<path d="M389.3,240.6c-6.3-1.2-11.6-3.2-16.7-5.3c-5.1-1.9-9.9-4.3-14.3-6.5c-9-4.6-16.9-9.6-24.3-14.3c-3.6-2.5-7-4.7-10.3-7.2
		c-1.7-1-3.3-2.2-4.7-3.4l-1.2-0.9l-1.2-0.7l-2.2-1.6c-5.8-4.3-10.7-8.1-15.1-11.3c-4.4-3.4-8.1-6.5-13-10.2
		c-2.4-1.9-5.3-3.8-8.4-6.2l-11-7.5c-1.1-0.7-2.1-1.5-3.2-2.2l-3.3-2.4l-3.3-2.5c-1.2-0.9-2.3-1.9-3.4-2.8l-1.7-1.5l-1.7-1.6
		c-1.2-1-2.2-2.1-3.4-3.2c-2.2-2.4-4.4-4.6-6.5-7.4c-1.1-1.3-2.1-2.7-3-4c-1.1-1.5-2-2.8-2.9-4.4c-1.9-2.9-3.7-6.2-5.3-9.4
		c-1.7-3.2-3-7.1-4.3-10.6c-1.3-3.8-2.3-7.7-3.2-11.9c3-1.6,5.7-2.8,8.3-4.1l3.8-1.9c0.6-0.3,1.3-0.6,1.8-0.9
		c0.6-0.3,1.2-0.6,1.8-0.9c2.3-1.3,4.5-2.4,6.7-3.7c1.1-0.6,2.1-1.2,3.2-1.8l3-1.8c8-4.6,15.2-9.1,23.8-12.1
		c2.2-0.7,4.4-1.5,6.8-1.9c1.3-0.3,2.3-0.6,3.6-0.7c1.3-0.1,2.5-0.3,3.8-0.4C293.4,71,299,71,304.8,72c2.8,0.4,5.9,1.2,8.8,2.1
		c1.5,0.4,2.9,1,4.4,1.5c1.5,0.6,2.9,1,4.4,1.8c2.8,1.5,5.8,2.8,8.5,4.6l4.1,2.7c1.4,0.9,2.6,1.9,4,2.9
		c10.5,8.1,19.3,18.4,26.4,29.6c1.7,2.8,3.6,5.6,5,8.7c1.6,2.9,3,5.9,4.5,9c1.4,3.1,2.6,6.2,3.9,9.3s2.3,6.3,3.4,9.6
		c1.1,3.2,2,6.5,2.8,9.7c0.8,3.4,1.6,6.6,2.2,10c0.7,3.4,1.3,6.8,1.8,10.3s0.9,7.1,1.3,10.6c0.6,7.2,0.8,14.6,0.8,22.3
		C391.2,224.3,390.8,232.1,389.3,240.6z"></path>
</g>
<g>
	<path d="M457.6,230.2c-6.3-1.2-11.6-3.2-16.7-5.3c-5.1-1.9-9.9-4.3-14.3-6.5c-9-4.6-16.9-9.6-24.3-14.3c-3.6-2.5-7-4.7-10.3-7.2
		c-1.7-1-3.3-2.2-4.7-3.4l-1.2-0.9l-1.2-0.7l-2.2-1.6c-5.8-4.3-10.7-8.1-15.1-11.3c-4.4-3.4-8.1-6.5-13-10.2
		c-2.4-1.9-5.3-3.8-8.4-6.2l-11-7.5c-1.1-0.7-2.1-1.5-3.2-2.2l-3.3-2.4l-3.3-2.5c-1.2-0.9-2.3-1.9-3.4-2.8l-1.7-1.5l-1.7-1.6
		c-1.2-1-2.2-2.1-3.4-3.2c-2.2-2.4-4.4-4.6-6.5-7.4c-1.1-1.3-2.1-2.7-3-4c-1.1-1.5-2-2.8-2.9-4.4c-1.9-2.9-3.7-6.2-5.3-9.4
		c-1.7-3.2-3-7.1-4.3-10.6c-1.3-3.8-2.3-7.7-3.2-11.9c3-1.6,5.7-2.8,8.3-4.1l3.8-1.9c0.6-0.3,1.3-0.6,1.8-0.9
		c0.6-0.3,1.2-0.6,1.8-0.9c2.3-1.3,4.5-2.4,6.7-3.7c1.1-0.6,2.1-1.2,3.2-1.8l3-1.8c8-4.6,15.2-9.1,23.8-12.1
		c2.2-0.7,4.4-1.5,6.8-1.9c1.3-0.3,2.3-0.6,3.6-0.7c1.3-0.1,2.5-0.3,3.8-0.4c5.1-0.4,10.7-0.4,16.5,0.6c2.8,0.4,5.9,1.2,8.8,2.1
		c1.5,0.4,2.9,1,4.4,1.5c1.5,0.6,2.9,1,4.4,1.8c2.8,1.5,5.8,2.8,8.5,4.6l4.1,2.7c1.4,0.9,2.6,1.9,4,2.9
		c10.5,8.1,19.3,18.4,26.4,29.6c1.7,2.8,3.6,5.6,5,8.7c1.6,2.9,3,5.9,4.5,9c1.4,3.1,2.6,6.2,3.9,9.3s2.3,6.3,3.4,9.6
		c1.1,3.2,2,6.5,2.8,9.7c0.8,3.4,1.6,6.6,2.2,10c0.7,3.4,1.3,6.8,1.8,10.3s0.9,7.1,1.3,10.6c0.6,7.2,0.8,14.6,0.8,22.3
		C459.5,213.8,459,221.6,457.6,230.2z"></path>
</g>
<g>
	<path d="M544.8,230.2c-6.3-1.2-11.6-3.2-16.7-5.3c-5.1-1.9-9.9-4.3-14.3-6.5c-9-4.6-16.9-9.6-24.3-14.3c-3.6-2.5-7-4.7-10.3-7.2
		c-1.7-1-3.3-2.2-4.7-3.4l-1.2-0.9l-1.2-0.7l-2.2-1.6c-5.8-4.3-10.7-8.1-15.1-11.3c-4.4-3.4-8.1-6.5-13-10.2
		c-2.4-1.9-5.3-3.8-8.4-6.2l-11-7.5c-1.1-0.7-2.1-1.5-3.2-2.2l-3.3-2.4l-3.3-2.5c-1.2-0.9-2.3-1.9-3.4-2.8l-1.7-1.5l-1.7-1.6
		c-1.2-1-2.2-2.1-3.4-3.2c-2.2-2.4-4.4-4.6-6.5-7.4c-1.1-1.3-2.1-2.7-3-4c-1.1-1.5-2-2.8-2.9-4.4c-1.9-2.9-3.7-6.2-5.3-9.4
		c-1.7-3.2-3-7.1-4.3-10.6c-1.3-3.8-2.3-7.7-3.2-11.9c3-1.6,5.7-2.8,8.3-4.1l3.8-1.9c0.6-0.3,1.3-0.6,1.8-0.9
		c0.6-0.3,1.2-0.6,1.8-0.9c2.3-1.3,4.5-2.4,6.7-3.7c1.1-0.6,2.1-1.2,3.2-1.8l3-1.8c8-4.6,15.2-9.1,23.8-12.1
		c2.2-0.7,4.4-1.5,6.8-1.9c1.3-0.3,2.3-0.6,3.6-0.7c1.3-0.1,2.5-0.3,3.8-0.4c5.1-0.4,10.7-0.4,16.5,0.6c2.8,0.4,5.9,1.2,8.8,2.1
		c1.5,0.4,2.9,1,4.4,1.5c1.5,0.6,2.9,1,4.4,1.8c2.8,1.5,5.8,2.8,8.5,4.6l4.1,2.7c1.4,0.9,2.6,1.9,4,2.9
		c10.5,8.1,19.3,18.4,26.4,29.6c1.7,2.8,3.6,5.6,5,8.7c1.6,2.9,3,5.9,4.5,9c1.4,3.1,2.6,6.2,3.9,9.3c1.3,3.1,2.3,6.3,3.4,9.6
		c1.1,3.2,2,6.5,2.8,9.7c0.8,3.4,1.6,6.6,2.2,10c0.7,3.4,1.3,6.8,1.8,10.3s0.9,7.1,1.3,10.6c0.6,7.2,0.8,14.6,0.8,22.3
		C546.7,213.8,546.1,221.6,544.8,230.2z"></path>
</g>
<g>
	<path d="M267.3,234.3c-1.5-3.5-2.4-7.1-3.4-10.6c-0.9-3.5-1.7-7.1-2.3-10.6c-0.5-3.5-1.1-7.1-1.4-10.6s-0.6-7.1-0.7-10.6
		s-0.1-7.1,0-10.6c0-1.8,0.2-3.5,0.3-5.3c0.1-1.8,0.3-3.5,0.5-5.3c0.3-3.5,0.9-7.1,1.6-10.6c0.3-1.8,0.6-3.5,1.1-5.3l1.4-5.3
		c0.5-1.8,0.9-3.5,1.5-5.3l1.8-5.2c1.2-3.4,2.7-6.8,4.2-9.9c0.7-1.6,1.6-3.1,2.4-4.6s1.7-2.9,2.5-4.3c0.8-1.3,1.8-2.7,2.7-4
		c0.9-1.2,1.8-2.4,2.7-3.5c3.6-4.6,7.4-8.3,11.1-12.2l1.5-1.5c0.5-0.4,0.9-1,1.5-1.5c1.1-1,2-2.1,3.2-3.1c2.1-2.1,4.2-4.3,6.8-6.3
		c0.6,4,1.1,7.8,1.1,11.6c0,1.9,0,3.8-0.1,5.7c0,1-0.1,1.9-0.1,2.9c-0.1,0.9-0.2,1.9-0.3,2.8c-0.2,1.9-0.4,3.7-0.7,5.6
		c-0.3,1.8-0.6,3.5-1.1,5.5c-0.3,1.8-0.7,3.5-1.2,5.2l-1.3,4.9c-0.4,1.6-0.8,3.1-1.3,4.6c-0.4,1.5-0.7,2.9-1.2,4.3
		c-0.4,1.5-0.7,2.8-1.2,4.1l-0.6,1.9c-0.2,0.6-0.4,1.3-0.5,1.9c-0.6,2.7-1.5,5.2-2.1,7.8l-1.1,3.8c-0.3,1.3-0.6,2.7-1.1,4l-1.2,4
		c-0.3,1.3-0.7,2.8-1.1,4.1s-0.7,2.8-1.2,4.1c-0.4,1.3-0.7,2.8-1.2,4.3c-0.7,2.8-1.7,5.6-2.6,8.5c-0.8,2.9-1.8,5.9-2.8,8.7
		c-1.1,2.9-2.1,5.9-3.3,8.8c-1.2,2.9-2.4,5.9-3.7,8.8c-1.3,2.9-2.7,6-4.2,9C270.9,228.3,269.4,231.4,267.3,234.3z"></path>
</g>
<g>
	<path d="M293.7,233.4c-2.1-2.9-3.7-6-5.3-9c-1.6-2.9-2.9-6-4.2-9c-1.4-2.9-2.6-5.9-3.7-8.8c-1.2-2.9-2.1-5.9-3.3-8.8
		c-1.1-2.9-2-5.9-2.8-8.7c-0.8-2.9-1.8-5.6-2.6-8.5c-0.4-1.3-0.7-2.9-1.2-4.3c-0.4-1.3-0.7-2.8-1.2-4.1c-0.4-1.3-0.7-2.8-1.1-4.1
		l-1.2-4c-0.3-1.3-0.6-2.7-1.1-4l-1.1-3.8c-0.6-2.7-1.5-5.2-2.1-7.8c-0.1-0.7-0.3-1.3-0.5-1.9l-0.5-2.1c-0.4-1.3-0.7-2.7-1.2-4.1
		s-0.7-2.8-1.2-4.3s-0.8-3.1-1.3-4.6l-1.3-4.9c-0.4-1.6-0.8-3.4-1.2-5.2c-0.4-1.8-0.7-3.5-1.1-5.5c-0.3-1.9-0.5-3.7-0.7-5.6
		c-0.1-0.9-0.2-1.9-0.3-2.8c-0.1-1-0.1-1.9-0.1-2.9c0-1.9-0.1-3.8-0.1-5.7c0.1-3.8,0.4-7.8,1.1-11.6c2.6,2.1,4.7,4.3,6.8,6.3
		c1.2,1,2.1,2.1,3.2,3.1c0.5,0.4,0.9,1,1.5,1.5l1.5,1.5c3.8,4,7.6,7.7,11.1,12.2c0.9,1.2,1.8,2.4,2.7,3.5c0.9,1.3,1.8,2.7,2.7,4
		c0.8,1.3,1.8,2.8,2.5,4.3c0.8,1.5,1.7,2.9,2.4,4.6c1.5,3.2,3,6.5,4.2,9.9l1.8,5.2c0.5,1.8,0.9,3.5,1.5,5.3l1.4,5.3
		c0.3,1.8,0.7,3.5,1.1,5.3c0.6,3.5,1.3,7.1,1.6,10.6c0.2,1.8,0.3,3.5,0.5,5.3c0.1,1.8,0.3,3.5,0.3,5.3c0.1,3.5,0.1,7.1,0,10.6
		c0,3.5-0.3,7.1-0.7,10.6c-0.3,3.5-0.8,7.1-1.4,10.6s-1.5,7.1-2.3,10.6C296.3,226.4,295.2,229.9,293.7,233.4z"></path>
</g>
<g>
	<g>
		<path d="M42.9,78.3c1.5-10.1,4.6-20,9.6-29.7c1.2-2.4,2.7-4.8,4.2-7.2s3.2-4.7,5.1-7c3.6-4.6,8-9,13.1-13.1S86,13.5,92.7,10.7
			C96,9.2,99.4,8,103,6.9c3.6-1.1,7.2-2,10.8-2.6c7.4-1.4,14.7-1.9,21.9-2c7.2,0,14.1,0.5,20.8,1.4c13.3,1.7,25.6,4.5,37,7.5
			c5.7,1.5,11.3,3.1,16.7,4.7l15.7,4.6c10.2,2.9,19.9,5.6,28.8,7.4c4.4,0.9,8.7,1.7,12.8,2c4,0.5,7.8,0.7,11.4,0.7s7.4-0.3,11.5-0.8
			s8.3-1.3,12.8-2.3c9-1.9,18.7-4.7,28.8-7.7l15.7-4.7c5.4-1.7,10.9-3.2,16.7-4.7c11.5-3.1,23.7-6,37.1-7.8c6.7-0.9,13.7-1.4,21-1.4
			c7.2,0.1,14.7,0.7,22.1,2.1C448.3,4,452,5,455.5,6.1s7,2.5,10.3,4c6.6,3.1,12.4,6.9,17.5,11s9.2,8.7,12.8,13.3
			c3.6,4.7,6.4,9.5,8.8,14.3c4.7,9.7,7.7,19.7,9.1,29.8c-8.4-7.2-16.5-14.2-25-20.1c-8.4-6-17.1-10.8-25.6-13.6
			c-4.3-1.4-8.3-2.3-12.3-2.7c-2-0.2-4-0.3-6-0.3s-3.9,0.1-5.9,0.2c-3.9,0.4-7.8,1.1-11.9,2c-4.1,1-8.3,2.3-12.5,3.7
			c-8.6,3-17.7,6.8-27.2,11c-4.8,2-9.7,4.3-14.7,6.4l-7.6,3.3l-7.9,3.2c-10.7,4.4-22.3,8.6-35.2,12c-6.4,1.7-13.1,3.2-20.3,4.3
			c-7.1,1.1-14.7,1.7-22.4,1.8c-7.8,0.1-15.4-0.5-22.6-1.5c-7.2-1.1-14-2.4-20.5-4c-13-3.3-24.6-7.4-35.4-11.7l-8-3.2l-7.7-3.2
			c-5.1-2.1-9.9-4.3-14.8-6.3c-9.6-4.1-18.7-7.9-27.4-10.9c-4.4-1.4-8.6-2.8-12.7-3.8c-4.1-1.1-8.1-1.7-12.1-2.2
			c-1-0.1-2-0.2-2.9-0.2c-1-0.1-2-0.1-2.9-0.1c-2,0-4,0.1-6,0.2c-4,0.4-8.2,1.2-12.4,2.5c-8.5,2.6-17.3,7.2-25.8,13
			C59.7,64.3,51.4,71.2,42.9,78.3z"></path>
	</g>
	<g>
		<path d="M57.7,114.2c-1.2-4.4-1.6-8.4-1.8-12.3c-0.1-3.9,0.1-7.7,0.7-11.4c0.3-1.8,0.6-3.6,1.1-5.4c0.4-1.8,0.9-3.5,1.5-5.3
			c0.5-1.7,1.2-3.5,1.9-5.1c0.7-1.7,1.5-3.4,2.4-5c0.9-1.7,1.8-3.3,2.8-4.9s2.1-3.2,3.3-4.7c1.2-1.6,2.5-3.1,3.8-4.6
			c1.2-1.5,2.8-2.9,4.3-4.4c6-5.7,13.4-11,22.3-15.1c1.2-0.5,2.2-1.1,3.4-1.5l3.5-1.4c2.3-0.9,4.8-1.6,7.2-2.3
			c1.2-0.4,2.5-0.6,3.7-0.9c1.2-0.3,2.5-0.6,3.7-0.8c2.5-0.5,5-0.8,7.5-1.1c5-0.5,9.6-0.5,13.9-0.3c1.1,0.1,2.1,0.2,3.2,0.2
			c1.1,0.1,2,0.2,3,0.4c2,0.2,3.9,0.6,5.8,1c7.3,1.5,13.4,3.8,20.2,6.2l2.6,0.9c0.9,0.3,1.8,0.6,2.7,0.9c1.9,0.7,3.7,1.2,5.7,1.9
			c0.5,0.2,1,0.4,1.5,0.5c0.5,0.2,1,0.3,1.5,0.5l3.2,1c2.2,0.7,4.4,1.3,7,2.1c-0.7,2.2-1.6,4.1-2.7,6.1c-1.2,1.8-2.3,3.8-3.6,5.4
			c-1.4,1.7-2.8,3.4-4.4,4.8c-0.8,0.8-1.6,1.5-2.5,2.3c-0.9,0.7-1.7,1.4-2.6,2c-1.8,1.4-3.6,2.6-5.5,3.8c-0.9,0.6-1.9,1.1-2.8,1.7
			l-1.4,0.8l-1.4,0.8c-1,0.5-1.9,1-2.8,1.4l-2.8,1.3l-2.8,1.1c-0.9,0.4-1.8,0.8-2.7,1.1l-9.3,3.8c-2.7,1.1-5.2,2.2-7.1,3.2
			c-4.2,1.9-7.3,3.5-11,5.2s-7.9,3.6-12.8,5.8l-1.9,0.8l-1,0.4l-1,0.5c-1.3,0.6-2.7,1.2-4,1.7c-2.8,1.3-5.7,2.3-8.7,3.7
			c-6.1,2.4-12.9,5-20.5,7.3c-3.8,1.2-7.8,2.3-12.1,3.3C67.5,112.5,62.9,113.5,57.7,114.2z"></path>
	</g>
	<g>
		<path class="st0" d="M362.6,16.7"></path>
	</g>
	<g>
		<path d="M122.4,114.4c-1.2-4.4-1.6-8.4-1.8-12.3c-0.1-3.9,0.1-7.7,0.7-11.4c0.3-1.8,0.6-3.6,1.1-5.4s0.9-3.5,1.5-5.3
			c0.5-1.7,1.2-3.5,1.9-5.1c0.7-1.7,1.5-3.4,2.4-5c0.9-1.7,1.8-3.3,2.8-4.9s2.1-3.2,3.3-4.7c1.2-1.6,2.5-3.1,3.8-4.6
			c1.2-1.5,2.8-2.9,4.3-4.4c6-5.7,13.4-11,22.3-15.1c1.2-0.5,2.2-1.1,3.4-1.5l3.5-1.4c2.3-0.9,4.8-1.6,7.2-2.3
			c1.2-0.4,2.5-0.6,3.7-0.9c1.2-0.3,2.5-0.6,3.7-0.8c2.5-0.5,5-0.8,7.5-1.1c5-0.5,9.6-0.5,13.9-0.3c1.1,0.1,2.1,0.2,3.2,0.2
			c1.1,0.1,2,0.2,3,0.4c2,0.2,3.9,0.6,5.8,1c7.3,1.5,13.4,3.8,20.2,6.2l2.6,0.9c0.9,0.3,1.8,0.6,2.7,0.9c1.9,0.7,3.7,1.2,5.7,1.9
			c0.5,0.2,1,0.4,1.5,0.5c0.5,0.2,1,0.3,1.5,0.5l3.2,1c2.2,0.7,4.4,1.3,7,2.1c-0.7,2.2-1.6,4.1-2.7,6.1c-1.2,1.8-2.3,3.8-3.6,5.4
			c-1.4,1.7-2.8,3.4-4.4,4.8c-0.8,0.8-1.6,1.5-2.5,2.3c-0.9,0.7-1.7,1.4-2.6,2c-1.8,1.4-3.6,2.6-5.5,3.8c-0.9,0.6-1.9,1.1-2.8,1.7
			l-1.4,0.8l-1.4,0.8c-1,0.5-1.9,1-2.8,1.4l-2.8,1.3l-2.8,1.2c-0.9,0.4-1.8,0.8-2.7,1.1l-9.3,3.8c-2.7,1.1-5.2,2.2-7.1,3.2
			c-4.2,1.9-7.3,3.5-11,5.2s-7.9,3.6-12.8,5.8l-1.9,0.8l-1,0.4l-1,0.5c-1.3,0.6-2.7,1.2-4,1.7c-2.8,1.3-5.7,2.3-8.7,3.7
			c-6.1,2.4-12.9,5-20.5,7.3c-3.8,1.2-7.8,2.3-12.1,3.3C132.2,112.8,127.7,113.8,122.4,114.4z"></path>
	</g>
	<g>
		<path d="M188.2,119.8c-1.2-4.4-1.6-8.4-1.8-12.3c-0.1-3.9,0.1-7.7,0.7-11.4c0.3-1.8,0.6-3.6,1.1-5.4s0.9-3.5,1.5-5.3
			c0.5-1.7,1.2-3.5,1.9-5.1c0.7-1.7,1.5-3.4,2.4-5c0.9-1.7,1.8-3.3,2.8-4.9c1.1-1.6,2.1-3.2,3.3-4.7c1.2-1.6,2.5-3.1,3.8-4.6
			c1.2-1.5,2.8-2.9,4.3-4.4c6-5.7,13.4-11,22.3-15.1c1.2-0.5,2.2-1.1,3.4-1.5l3.5-1.4c2.3-0.9,4.8-1.6,7.2-2.3
			c1.2-0.4,2.5-0.6,3.7-0.9c1.2-0.3,2.5-0.6,3.7-0.8c2.5-0.5,5-0.8,7.5-1.1c5-0.5,9.6-0.5,13.9-0.3c1.1,0.1,2.1,0.2,3.2,0.2
			c1.1,0.1,2,0.2,3,0.4c2,0.2,3.9,0.6,5.8,1c7.3,1.5,13.4,3.8,20.2,6.2l2.6,0.9c0.9,0.3,1.8,0.6,2.7,0.9c1.9,0.7,3.7,1.2,5.7,1.9
			c0.5,0.2,1,0.4,1.5,0.5c0.5,0.2,1,0.3,1.5,0.5l3.2,1c2.2,0.7,4.4,1.3,7,2.1c-0.7,2.2-1.6,4.1-2.7,6.1c-1.2,1.8-2.3,3.8-3.6,5.4
			c-1.4,1.7-2.8,3.4-4.4,4.8c-0.8,0.8-1.6,1.5-2.5,2.3c-0.9,0.7-1.7,1.4-2.6,2c-1.8,1.4-3.6,2.6-5.5,3.8c-0.9,0.6-1.9,1.1-2.8,1.7
			l-1.4,0.8l-1.4,0.8c-1,0.5-1.9,1-2.8,1.4l-2.8,1.3l-2.8,1.2c-0.9,0.4-1.8,0.8-2.7,1.1l-9.3,3.8c-2.7,1.1-5.2,2.2-7.1,3.2
			c-4.2,1.9-7.3,3.5-11,5.2s-7.9,3.6-12.8,5.8l-1.9,0.8l-1,0.4l-1,0.5c-1.3,0.6-2.7,1.2-4,1.7c-2.8,1.3-5.7,2.3-8.7,3.7
			c-6.1,2.4-12.9,5-20.5,7.3c-3.8,1.2-7.8,2.3-12.1,3.3C197.9,118.2,193.4,119.2,188.2,119.8z"></path>
	</g>
	<g>
		<path d="M240.7,115.8c0.3-1.7,0.8-3.4,1.3-5s1.2-3.2,1.9-4.7s1.5-3,2.4-4.4s1.7-2.9,2.8-4.3c1-1.4,2-2.8,3.2-4.1
			c0.5-0.7,1.2-1.4,1.8-2c0.6-0.7,1.2-1.3,1.9-2c0.6-0.6,1.2-1.3,2-1.9c0.7-0.6,1.4-1.2,2.1-1.8l2.1-1.7c0.7-0.6,1.6-1.1,2.4-1.7
			l2.4-1.6c0.9-0.5,1.8-1,2.7-1.4l1.3-0.7c0.4-0.2,0.9-0.5,1.3-0.7c1-0.4,1.9-0.8,2.8-1.1c3.8-1.4,7.8-2.4,11.5-2.9
			c3.6-0.6,7.1-0.9,10.7-1.4l1.3-0.2c0.4-0.1,0.9-0.2,1.3-0.2c0.9-0.2,1.8-0.3,2.8-0.4c1.9-0.3,3.7-0.6,5.9-0.8c-1,1.5-2,3-3.3,4.4
			c-1.2,1.3-2.6,2.6-4.1,3.8c-0.7,0.6-1.5,1.1-2.3,1.7c-0.8,0.5-1.6,1.1-2.4,1.5c-0.8,0.5-1.6,0.9-2.4,1.4l-2.4,1.3
			c-3.2,1.7-6,3-8.6,4.5c-1.2,0.8-2.6,1.4-3.8,2.3l-1.9,1.1l-1.9,1.3c-0.6,0.5-1.2,0.8-2,1.3c-0.6,0.5-1.2,0.9-1.9,1.4
			c-0.6,0.5-1.2,0.9-2,1.3l-2,1.7c-1.2,1-2.7,1.8-4,2.8s-2.7,1.9-4.1,2.9c-1.4,0.9-2.8,1.9-4.3,2.9c-1.4,1-3,1.8-4.5,2.7
			c-1.5,0.9-3.1,1.8-4.8,2.7C244.4,114.2,242.6,115.1,240.7,115.8z"></path>
	</g>
</g>
<g>
	<g>
		<path d="M67.9,29.2c1.3-3.8,4.1-7.6,8.5-11.3c1.1-0.9,2.4-1.8,3.7-2.7c1.3-0.9,2.8-1.8,4.5-2.7c3.2-1.8,7.1-3.4,11.6-5
			s9.9-3,15.8-4c2.9-0.6,6-1,9.2-1.4c3.2-0.4,6.4-0.8,9.6-1c6.6-0.5,13.1-0.7,19.5-0.8c6.4,0,12.5,0.2,18.5,0.5
			c11.8,0.6,22.8,1.7,32.9,2.9c5.1,0.6,10,1.2,14.8,1.8l14,1.8c9.1,1.1,17.7,2.1,25.6,2.8c3.9,0.3,7.7,0.6,11.4,0.8
			c3.6,0.2,6.9,0.3,10.1,0.3s6.6-0.1,10.2-0.3c3.6-0.2,7.4-0.5,11.4-0.9c8-0.7,16.6-1.8,25.6-2.9l14-1.8c4.8-0.6,9.7-1.2,14.8-1.8
			c10.2-1.2,21.1-2.3,33-3c6-0.3,12.2-0.5,18.7-0.5c6.4,0,13.1,0.3,19.7,0.8c3.3,0.3,6.6,0.6,9.7,1.1s6.2,1,9.2,1.5
			c5.9,1.2,11,2.6,15.6,4.2c4.5,1.6,8.2,3.3,11.4,5.1c3.2,1.8,5.7,3.6,7.8,5.4c4.2,3.7,6.8,7.5,8.1,11.3c-7.5-2.7-14.7-5.4-22.2-7.7
			s-15.2-4.1-22.8-5.2c-3.8-0.5-7.4-0.9-10.9-1c-1.8-0.1-3.6-0.1-5.3-0.1s-3.5,0-5.2,0.1c-3.5,0.2-6.9,0.4-10.6,0.8
			c-3.6,0.4-7.4,0.9-11.1,1.4c-7.6,1.1-15.7,2.6-24.2,4.2c-4.3,0.8-8.6,1.6-13.1,2.4l-6.8,1.3l-7,1.2c-9.5,1.7-19.8,3.3-31.3,4.6
			c-5.7,0.6-11.6,1.2-18,1.6c-6.3,0.4-13.1,0.6-19.9,0.7c-6.9,0-13.7-0.2-20.1-0.6c-6.4-0.4-12.4-0.9-18.2-1.5
			c-11.6-1.3-21.9-2.8-31.5-4.5l-7.1-1.2l-6.8-1.2c-4.5-0.8-8.8-1.6-13.2-2.4c-8.5-1.6-16.6-3-24.4-4.2c-3.9-0.5-7.6-1.1-11.3-1.4
			c-3.6-0.4-7.2-0.6-10.8-0.8c-0.9,0-1.8-0.1-2.6-0.1c-0.9,0-1.8,0-2.6,0c-1.8,0-3.6,0-5.3,0.1c-3.6,0.2-7.3,0.5-11,1
			c-7.6,1-15.4,2.7-22.9,5C82.8,23.9,75.4,26.5,67.9,29.2z"></path>
	</g>
	<g>
		<path class="st0" d="M178.1,338.7"></path>
	</g>
</g>
</svg>
