<?xml version="1.0" encoding="utf-8"?>
<!-- Generator: Adobe Illustrator 23.0.5, SVG Export Plug-In . SVG Version: 6.00 Build 0)  -->
<svg version="1.1" id="Capa_1" xmlns="http://www.w3.org/2000/svg" xmlns:xlink="http://www.w3.org/1999/xlink" x="0px" y="0px" viewBox="0 0 819.23 799.24" style="enable-background: new 0 0 819.23 799.24" xml:space="preserve">
<style>.st0 {
  fill: #999;
}

.st1 {
  fill: #3c3c3c;
}

.st2 {
  fill: none;
}

.st3 {
  fill: #fff;
}

</style>
<ellipse class="st0" cx="407.09" cy="391.9" rx="267" ry="257"></ellipse>
<path class="st0" d="M408.09,112.59c39.31,0,77.42,7.45,113.28,22.13c34.65,14.19,65.78,34.52,92.52,60.41
	c26.74,25.89,47.73,56.03,62.39,89.59c15.17,34.72,22.86,71.62,22.86,109.68s-7.69,74.96-22.86,109.68
	c-14.66,33.55-35.65,63.7-62.39,89.59c-26.74,25.89-57.87,46.22-92.52,60.41c-35.86,14.69-73.97,22.13-113.28,22.13
	s-77.42-7.45-113.28-22.13c-34.65-14.19-65.78-34.52-92.52-60.41c-26.74-25.89-47.73-56.03-62.39-89.59
	c-15.17-34.72-22.86-71.62-22.86-109.68s7.69-74.96,22.86-109.68c14.66-33.55,35.65-63.7,62.39-89.59
	c26.74-25.89,57.87-46.22,92.52-60.41C330.68,120.04,368.79,112.59,408.09,112.59 M408.09,86.91
	c-175.39,0-317.57,137.67-317.57,307.5s142.18,307.5,317.57,307.5s317.57-137.67,317.57-307.5S583.48,86.91,408.09,86.91
	L408.09,86.91z"></path>
<g>
	<g>
		<path class="st1" d="M170.74,422.04c1.81-11.68,5.48-23.07,11.29-34.06l2.31-4.08c0.82-1.35,1.69-2.66,2.55-4.01
			c0.88-1.33,1.84-2.62,2.78-3.94c0.95-1.31,2.02-2.55,3.04-3.83c4.21-5.05,9.15-9.78,14.76-13.96c5.6-4.17,11.9-7.75,18.56-10.49
			c1.67-0.67,3.35-1.39,5.05-1.94c1.71-0.59,3.42-1.16,5.15-1.63c3.46-1.04,6.95-1.82,10.45-2.44c14.05-2.58,27.8-2.28,40.56-0.94
			c12.8,1.34,24.73,3.85,35.99,6.5c5.62,1.38,11.1,2.72,16.4,4.16l7.86,2.07l7.63,2.05c10.03,2.64,19.5,4.99,28.26,6.61
			c8.76,1.63,16.77,2.51,23.83,2.45c7.11-0.05,15.14-1.02,23.91-2.75c8.77-1.71,18.23-4.19,28.25-6.89l7.62-2.12l7.86-2.14
			c5.29-1.48,10.77-2.88,16.4-4.3c11.27-2.74,23.22-5.34,36.08-6.73c6.42-0.74,13.08-1.08,19.91-1.05
			c6.83,0.11,13.88,0.67,20.93,2.03c1.76,0.33,3.52,0.68,5.28,1.12l2.62,0.66l2.62,0.77c3.47,1.03,6.91,2.27,10.24,3.71
			c6.68,2.85,12.93,6.59,18.47,10.86c5.55,4.29,10.38,9.13,14.49,14.26c4.12,5.12,7.53,10.53,10.37,16.04
			c5.59,11.08,9.08,22.51,10.74,34.21c-4.74-3.61-9.11-7.25-13.68-10.51c-4.53-3.28-9-6.34-13.49-9.02
			c-8.98-5.35-17.97-9.05-26.34-10.61c-8.4-1.62-16.11-1.19-23.93,0.34c-3.92,0.79-7.88,1.8-11.95,3.16
			c-4.08,1.27-8.24,2.88-12.53,4.58c-17.16,6.95-35.84,16.67-57.26,25.54c-10.73,4.46-22.23,8.67-34.84,12
			c-12.59,3.3-26.4,5.7-41.28,5.81c-14.92,0.09-28.8-2.18-41.45-5.35c-6.33-1.6-12.4-3.42-18.21-5.43c-5.81-2-11.42-4.05-16.8-6.27
			c-21.53-8.71-40.3-18.29-57.61-25.22c-4.33-1.69-8.53-3.3-12.66-4.58c-4.12-1.37-8.15-2.41-12.12-3.22
			c-7.94-1.56-15.76-2.09-24.21-0.63c-8.43,1.42-17.47,4.89-26.52,10.09c-4.53,2.58-9.06,5.56-13.63,8.77
			C179.94,414.91,175.51,418.48,170.74,422.04z"></path>
	</g>
	<g>
		<path class="st1" d="M185.55,457.63c-2.33-10.71-2.1-19.87-0.86-28.65c0.35-2.17,0.75-4.33,1.23-6.44
			c0.21-1.08,0.51-2.1,0.81-3.13c0.29-1.04,0.6-2.07,0.94-3.07c0.66-2.04,1.34-4.04,2.19-6.01c0.87-1.93,1.73-3.9,2.68-5.79
			c3.96-7.55,9.14-14.58,15.72-20.82c6.57-6.21,14.66-11.64,23.79-15.49c9.09-3.89,19.13-6.04,28.33-6.33
			c9.15-0.26,17.35,1.15,24.11,3.43c0.85,0.3,1.7,0.58,2.56,0.91l2.44,0.96c1.68,0.72,3.16,1.37,4.79,2.18
			c3.1,1.51,6.25,3.23,9.51,5.02c3.3,1.85,6.76,3.75,10.64,5.83l6.12,3.22c2.17,1.15,4.39,2.21,6.89,3.64
			c-0.67,2.73-1.6,5.13-2.63,7.54c-1.09,2.24-2.25,4.56-3.59,6.62c-2.66,4.13-5.82,7.9-9.23,11.13c-3.43,3.3-7.07,6.06-10.75,8.54
			c-1.77,1.22-3.69,2.35-5.42,3.41l-2.67,1.51c-0.85,0.51-1.7,0.95-2.56,1.42c-6.88,3.6-12.36,6.28-16.71,8.44
			c-4.28,2.2-7.51,3.83-11.06,5.28c-3.52,1.46-7.42,2.85-12.12,4.43c-4.7,1.57-10.12,3.27-16.34,4.91
			c-3.11,0.88-6.41,1.65-9.93,2.49c-1.74,0.43-3.59,0.74-5.44,1.15c-1.85,0.4-3.78,0.76-5.77,1.1c-2.01,0.31-4.03,0.67-6.15,0.98
			c-2.1,0.32-4.31,0.57-6.58,0.81C195.9,457.32,191.17,457.77,185.55,457.63z"></path>
	</g>
	<g>
		<path class="st2" d="M491.17,360.91"></path>
	</g>
	<g>
		<path class="st1" d="M250.47,457.89c-2.33-10.71-2.1-19.87-0.86-28.65c0.35-2.17,0.75-4.33,1.23-6.44
			c0.21-1.08,0.51-2.1,0.81-3.13c0.29-1.04,0.6-2.07,0.94-3.07c0.66-2.04,1.34-4.04,2.19-6.01c0.87-1.93,1.73-3.9,2.68-5.79
			c3.96-7.55,9.14-14.58,15.72-20.82c6.57-6.21,14.66-11.64,23.79-15.49c9.09-3.89,19.13-6.04,28.33-6.33
			c9.15-0.26,17.35,1.15,24.11,3.43c0.85,0.3,1.7,0.58,2.56,0.91l2.44,0.96c1.68,0.72,3.16,1.37,4.79,2.18
			c3.1,1.51,6.25,3.23,9.51,5.02c3.3,1.85,6.76,3.75,10.64,5.83l6.12,3.22c2.17,1.15,4.39,2.21,6.89,3.64
			c-0.67,2.73-1.6,5.13-2.63,7.54c-1.09,2.24-2.25,4.56-3.59,6.62c-2.66,4.13-5.82,7.9-9.23,11.13c-3.43,3.3-7.07,6.06-10.75,8.54
			c-1.77,1.22-3.69,2.35-5.42,3.41l-2.67,1.51c-0.85,0.51-1.7,0.95-2.56,1.42c-6.88,3.6-12.36,6.28-16.71,8.44
			c-4.28,2.2-7.51,3.83-11.06,5.28c-3.52,1.46-7.42,2.85-12.12,4.43c-4.7,1.57-10.12,3.27-16.34,4.91
			c-3.11,0.88-6.41,1.65-9.93,2.49c-1.74,0.43-3.59,0.74-5.44,1.15c-1.85,0.4-3.78,0.76-5.77,1.1c-2.01,0.31-4.03,0.67-6.15,0.98
			c-2.1,0.32-4.31,0.57-6.58,0.81C260.81,457.58,256.09,458.03,250.47,457.89z"></path>
	</g>
	<g>
		<path class="st1" d="M316.35,463.23c-2.33-10.71-2.1-19.87-0.86-28.65c0.35-2.17,0.75-4.33,1.23-6.44
			c0.21-1.08,0.51-2.1,0.81-3.13c0.29-1.04,0.6-2.07,0.94-3.07c0.66-2.04,1.34-4.04,2.19-6.01c0.87-1.93,1.73-3.9,2.68-5.79
			c3.96-7.55,9.14-14.58,15.72-20.82c6.57-6.21,14.66-11.64,23.79-15.49c9.09-3.89,19.13-6.04,28.33-6.33
			c9.15-0.26,17.35,1.15,24.11,3.43c0.85,0.3,1.7,0.58,2.56,0.91l2.44,0.96c1.68,0.72,3.16,1.37,4.79,2.18
			c3.1,1.51,6.25,3.23,9.51,5.02c3.3,1.85,6.76,3.75,10.64,5.83l6.12,3.22c2.17,1.15,4.39,2.21,6.89,3.64
			c-0.67,2.73-1.6,5.13-2.63,7.54c-1.09,2.24-2.25,4.56-3.59,6.62c-2.66,4.13-5.82,7.9-9.23,11.13c-3.43,3.3-7.07,6.06-10.75,8.54
			c-1.77,1.22-3.69,2.35-5.42,3.41l-2.67,1.51c-0.85,0.51-1.7,0.95-2.56,1.42c-6.88,3.6-12.36,6.28-16.71,8.44
			c-4.28,2.2-7.51,3.83-11.06,5.28c-3.52,1.45-7.42,2.85-12.12,4.43c-4.7,1.57-10.12,3.27-16.34,4.91
			c-3.11,0.88-6.41,1.65-9.93,2.49c-1.74,0.43-3.59,0.74-5.44,1.15c-1.85,0.4-3.78,0.76-5.77,1.1c-2.01,0.31-4.03,0.67-6.15,0.98
			c-2.1,0.32-4.31,0.57-6.58,0.81C326.69,462.92,321.97,463.37,316.35,463.23z"></path>
	</g>
	<g>
		<path class="st1" d="M369.07,459.25c0.31-2.01,0.82-3.87,1.39-5.7c0.57-1.83,1.22-3.6,1.96-5.31c0.79-1.68,1.59-3.35,2.49-4.96
			c0.44-0.81,0.9-1.61,1.36-2.4c0.49-0.78,1.01-1.54,1.54-2.29c1.05-1.52,2.16-2.99,3.3-4.44c1.23-1.4,2.49-2.78,3.8-4.12
			c0.33-0.33,0.65-0.68,0.99-1l1.07-0.95c0.71-0.64,1.46-1.24,2.19-1.86c1.43-1.25,3.1-2.32,4.72-3.41
			c3.28-2.15,6.97-3.87,10.72-5.15c3.77-1.21,7.53-1.93,11.04-2.25c0.88-0.1,1.71-0.15,2.58-0.22l2.55-0.14l5.08-0.18l1.31-0.01
			c0.43-0.02,0.85-0.06,1.3-0.07c0.89-0.02,1.77-0.07,2.71-0.06c1.83-0.07,3.7-0.17,5.78-0.05c-0.92,1.79-2,3.46-3.22,5.01
			c-1.25,1.47-2.57,2.98-4.03,4.23c-0.73,0.64-1.48,1.25-2.23,1.87c-0.76,0.58-1.53,1.13-2.31,1.67c-0.79,0.56-1.57,1.05-2.34,1.53
			c-0.77,0.47-1.58,0.96-2.33,1.39c-3.05,1.76-5.81,3.26-8.39,4.72c-2.53,1.52-4.99,2.95-7.47,4.57c-1.24,0.82-2.52,1.54-3.78,2.44
			c-0.64,0.42-1.27,0.86-1.93,1.26l-0.99,0.61l-0.98,0.67c-1.3,0.9-2.67,1.75-4.05,2.58c-1.37,0.91-2.75,1.8-4.21,2.65l-4.42,2.58
			c-1.5,0.86-3.09,1.66-4.7,2.46C376.33,456.54,373.01,458.13,369.07,459.25z"></path>
	</g>
</g>
<g>
	<path class="st1" d="M449.04,458.55c-3.86-1.39-7.07-3.19-10.17-5.01c-1.55-0.9-3.08-1.8-4.52-2.76l-4.24-2.86
		c-1.39-0.94-2.72-1.93-4.02-2.92c-1.33-0.93-2.63-1.86-3.87-2.85l-0.93-0.74l-0.94-0.67c-0.63-0.44-1.23-0.92-1.85-1.38
		c-1.2-0.99-2.42-1.79-3.61-2.69c-2.37-1.79-4.72-3.37-7.15-5.06c-2.48-1.62-5.13-3.31-8.06-5.27c-0.72-0.48-1.49-1.03-2.23-1.54
		c-0.73-0.53-1.48-1.08-2.23-1.69c-0.75-0.59-1.48-1.19-2.2-1.82c-0.71-0.68-1.42-1.33-2.1-2.02c-1.38-1.34-2.59-2.94-3.74-4.49
		c-1.11-1.62-2.08-3.36-2.88-5.21c2.09,0.03,3.95,0.25,5.76,0.44c0.93,0.05,1.81,0.16,2.7,0.24c0.44,0.03,0.86,0.1,1.29,0.16
		l1.31,0.1l5.06,0.52l2.53,0.31c0.86,0.13,1.68,0.23,2.56,0.39c3.48,0.56,7.18,1.53,10.86,2.99c3.66,1.53,7.23,3.49,10.35,5.85
		c1.55,1.19,3.14,2.38,4.48,3.72c0.69,0.67,1.39,1.31,2.06,2l1.01,1.01c0.32,0.34,0.61,0.71,0.92,1.06
		c1.22,1.42,2.38,2.88,3.52,4.36c1.04,1.53,2.05,3.07,2.99,4.65c0.48,0.79,0.94,1.59,1.38,2.39c0.41,0.83,0.82,1.65,1.2,2.49
		c0.78,1.67,1.48,3.39,2.15,5.12c0.62,1.76,1.15,3.57,1.6,5.43C448.48,454.63,448.86,456.53,449.04,458.55z"></path>
</g>
<g>
	<path class="st1" d="M500.77,462.81c-5.62,0.13-10.35-0.32-14.92-0.77c-2.27-0.24-4.48-0.49-6.58-0.81
		c-2.12-0.31-4.14-0.67-6.15-0.98c-1.99-0.34-3.92-0.7-5.77-1.1c-1.85-0.42-3.7-0.72-5.44-1.15c-3.52-0.84-6.82-1.6-9.93-2.49
		c-6.22-1.64-11.64-3.35-16.34-4.91c-4.71-1.59-8.61-2.98-12.12-4.43c-3.55-1.45-6.77-3.09-11.06-5.28
		c-4.35-2.16-9.83-4.84-16.71-8.44c-0.85-0.47-1.71-0.91-2.56-1.42l-2.67-1.51c-1.73-1.07-3.65-2.19-5.42-3.41
		c-3.68-2.48-7.32-5.24-10.75-8.54c-3.41-3.23-6.57-7-9.23-11.13c-1.34-2.06-2.5-4.38-3.59-6.62c-1.02-2.41-1.96-4.81-2.63-7.54
		c2.5-1.43,4.72-2.49,6.89-3.64l6.12-3.22c3.88-2.08,7.33-3.98,10.64-5.83c3.26-1.8,6.41-3.52,9.51-5.02
		c1.63-0.81,3.11-1.46,4.79-2.18l2.44-0.96c0.86-0.34,1.71-0.61,2.56-0.91c6.77-2.28,14.96-3.69,24.11-3.43
		c9.2,0.3,19.24,2.44,28.33,6.33c9.13,3.86,17.22,9.28,23.79,15.49c6.59,6.23,11.76,13.27,15.72,20.82
		c0.96,1.89,1.82,3.86,2.68,5.79c0.85,1.97,1.53,3.97,2.19,6.01c0.34,1,0.65,2.04,0.94,3.07c0.3,1.03,0.6,2.05,0.81,3.13
		c0.48,2.11,0.88,4.26,1.23,6.44C502.88,442.95,503.1,452.11,500.77,462.81z"></path>
</g>
<g>
	<path class="st1" d="M558.61,457.47c-5.62,0.13-10.35-0.32-14.92-0.77c-2.27-0.24-4.48-0.49-6.58-0.81
		c-2.12-0.31-4.14-0.67-6.15-0.98c-1.99-0.34-3.92-0.7-5.77-1.1c-1.85-0.42-3.7-0.72-5.44-1.15c-3.52-0.84-6.82-1.6-9.93-2.49
		c-6.22-1.64-11.64-3.35-16.34-4.91c-4.71-1.59-8.61-2.98-12.12-4.43c-3.55-1.45-6.77-3.09-11.06-5.28
		c-4.35-2.16-9.83-4.84-16.71-8.44c-0.85-0.47-1.71-0.91-2.56-1.42l-2.67-1.51c-1.73-1.07-3.65-2.19-5.42-3.41
		c-3.68-2.48-7.32-5.24-10.75-8.54c-3.41-3.23-6.57-7-9.23-11.13c-1.34-2.06-2.5-4.38-3.59-6.62c-1.02-2.41-1.96-4.81-2.63-7.54
		c2.5-1.43,4.72-2.49,6.89-3.64l6.12-3.22c3.88-2.08,7.33-3.98,10.64-5.83c3.26-1.8,6.41-3.52,9.51-5.02
		c1.63-0.81,3.11-1.46,4.79-2.18l2.44-0.96c0.86-0.34,1.71-0.61,2.56-0.91c6.77-2.28,14.96-3.69,24.11-3.43
		c9.2,0.3,19.24,2.44,28.33,6.33c9.13,3.86,17.22,9.28,23.79,15.49c6.59,6.23,11.76,13.27,15.72,20.82
		c0.96,1.89,1.82,3.86,2.68,5.79c0.85,1.97,1.53,3.97,2.19,6.01c0.34,1,0.65,2.04,0.94,3.07c0.3,1.03,0.6,2.05,0.81,3.13
		c0.48,2.11,0.88,4.26,1.23,6.44C560.71,437.61,560.94,446.77,558.61,457.47z"></path>
</g>
<g>
	<path class="st1" d="M632.5,457.47c-5.62,0.13-10.35-0.32-14.92-0.77c-2.27-0.24-4.48-0.49-6.58-0.81
		c-2.12-0.31-4.14-0.67-6.15-0.98c-1.99-0.34-3.92-0.7-5.77-1.1c-1.85-0.42-3.7-0.72-5.44-1.15c-3.52-0.84-6.82-1.6-9.93-2.49
		c-6.22-1.64-11.64-3.35-16.34-4.91c-4.71-1.59-8.61-2.98-12.12-4.43c-3.55-1.45-6.77-3.09-11.06-5.28
		c-4.35-2.16-9.83-4.84-16.71-8.44c-0.85-0.47-1.71-0.91-2.56-1.42l-2.67-1.51c-1.73-1.07-3.65-2.19-5.42-3.41
		c-3.68-2.48-7.32-5.24-10.75-8.54c-3.41-3.23-6.57-7-9.23-11.13c-1.34-2.06-2.5-4.38-3.59-6.62c-1.02-2.41-1.96-4.81-2.63-7.54
		c2.5-1.43,4.72-2.49,6.89-3.64l6.12-3.22c3.88-2.08,7.33-3.98,10.64-5.83c3.26-1.8,6.41-3.52,9.51-5.02
		c1.63-0.81,3.11-1.46,4.79-2.18l2.44-0.96c0.86-0.34,1.71-0.61,2.56-0.91c6.77-2.28,14.96-3.69,24.11-3.43
		c9.2,0.3,19.24,2.44,28.33,6.33c9.13,3.86,17.22,9.28,23.79,15.49c6.59,6.23,11.76,13.27,15.72,20.82
		c0.96,1.89,1.82,3.86,2.68,5.79c0.85,1.97,1.53,3.97,2.19,6.01c0.34,1,0.65,2.04,0.94,3.07c0.3,1.03,0.6,2.05,0.81,3.13
		c0.48,2.11,0.88,4.26,1.23,6.44C634.6,437.61,634.83,446.77,632.5,457.47z"></path>
</g>
<g>
	<path class="st1" d="M397.29,459.59c-5.13-7.71-7.11-15.31-7.67-23.01c-0.12-1.93-0.12-3.85-0.07-5.77
		c0.17-1.94,0.38-3.89,0.71-5.81c0.08-0.48,0.14-0.97,0.24-1.45l0.36-1.46c0.23-0.98,0.54-1.93,0.8-2.9
		c0.53-1.91,1.35-3.86,2.19-5.75c0.77-1.91,1.94-3.75,3.01-5.57c1.13-1.8,2.47-3.51,3.81-5.13c2.8-3.17,5.88-5.78,8.95-7.72
		c2.98-1.93,6.08-3.36,9.3-4.86l1.28-0.55c0.41-0.19,0.8-0.41,1.25-0.59c0.88-0.38,1.73-0.79,2.69-1.17
		c1.83-0.82,3.72-1.69,6.04-2.48c0.7,2.25,1.07,4.46,1.22,6.64c0.08,2.15,0.04,4.36-0.27,6.43c-0.15,1.05-0.34,2.08-0.55,3.12
		c-0.23,1-0.49,1.98-0.78,2.96c-0.15,0.48-0.28,0.99-0.45,1.46l-0.46,1.36c-0.32,0.88-0.67,1.82-0.99,2.65
		c-1.32,3.37-2.51,6.16-3.61,8.67c-1.02,2.53-2.08,4.83-3.19,7.33c-0.54,1.26-1.22,2.41-1.79,3.77c-0.32,0.65-0.61,1.31-0.97,1.94
		l-0.52,0.96c-0.15,0.34-0.33,0.68-0.5,1.03c-0.66,1.37-1.45,2.72-2.27,4.08c-0.78,1.42-1.59,2.84-2.53,4.25
		c-0.44,0.71-0.97,1.41-1.44,2.13c-0.48,0.73-0.97,1.46-1.49,2.19c-1.04,1.46-2.17,2.92-3.42,4.38c-1.25,1.47-2.48,2.97-3.95,4.45
		C400.77,456.65,399.21,458.13,397.29,459.59z"></path>
</g>
<g>
	<path class="st1" d="M419.76,459.12c-1.92-1.46-3.48-2.94-4.93-4.43c-1.47-1.48-2.71-2.98-3.95-4.45
		c-1.25-1.46-2.38-2.92-3.42-4.38c-0.53-0.73-1.01-1.46-1.49-2.19c-0.47-0.73-0.99-1.42-1.44-2.13c-0.94-1.41-1.75-2.84-2.53-4.25
		c-0.82-1.36-1.6-2.71-2.27-4.08c-0.17-0.34-0.35-0.68-0.5-1.03l-0.52-0.96c-0.36-0.64-0.65-1.3-0.97-1.94
		c-0.57-1.36-1.25-2.51-1.79-3.77c-1.11-2.49-2.18-4.79-3.19-7.33c-1.09-2.51-2.29-5.3-3.61-8.67c-0.33-0.83-0.67-1.76-0.99-2.65
		l-0.46-1.36c-0.16-0.47-0.3-0.97-0.45-1.46c-0.29-0.97-0.55-1.96-0.78-2.96c-0.22-1.04-0.4-2.08-0.55-3.12
		c-0.32-2.07-0.35-4.28-0.27-6.43c0.14-2.18,0.51-4.4,1.22-6.64c2.32,0.79,4.21,1.67,6.04,2.48c0.96,0.38,1.82,0.79,2.69,1.17
		c0.45,0.18,0.83,0.4,1.25,0.59l1.28,0.55c3.23,1.5,6.32,2.93,9.3,4.86c3.06,1.93,6.14,4.55,8.95,7.72
		c1.35,1.62,2.69,3.33,3.81,5.13c1.07,1.82,2.24,3.66,3.01,5.57c0.84,1.89,1.66,3.84,2.19,5.75c0.27,0.97,0.57,1.93,0.8,2.9
		l0.36,1.46c0.1,0.48,0.16,0.96,0.24,1.45c0.33,1.92,0.54,3.87,0.71,5.81c0.05,1.92,0.05,3.84-0.07,5.77
		C426.88,443.81,424.9,451.41,419.76,459.12z"></path>
</g>
<g>
	<path class="st3" d="M367.37,230.68l-26.43,95.23h-59.21l26.43-95.23h-43.61l7.92-28.34h147.63l-7.77,28.34H367.37z"></path>
	<path class="st3" d="M553.25,296.3l-8.07,29.61H405.84l34.05-123.21h61.93l-25.87,93.61H553.25z"></path>
</g>
<g>
	<path class="st3" d="M302.05,510.8l-3.56,12.81h-31.1l-6.21,22.36h-28.2l16.22-58.69h68.43l-3.7,13.2h-40.11l-2.87,10.32H302.05z"></path>
	<path class="st3" d="M357.62,533.98h-25.99l-9.07,11.99H298.5l44.94-58.69h30.46l15.08,58.69h-28.65L357.62,533.98z M355.89,521.85
		l-3.86-16.98l-12.79,16.98H355.89z"></path>
	<path class="st3" d="M496.04,487.29l-16.22,58.69h-21.58l-18.62-22.53c-5.07-6.16-8.27-11.04-9.61-14.62
		c0.09,0.86,0.14,1.53,0.14,2.02c0,1.61-0.36,3.73-1.07,6.36l-7.97,28.76h-23.66l16.22-58.69h26.15l10.67,13.59
		c7.39,9.4,12.21,16.35,14.44,20.85c-0.14-1.18-0.21-2.05-0.21-2.62c0-1.66,0.64-4.85,1.92-9.55l6.18-22.27H496.04z"></path>
	<path class="st3" d="M585.09,500.92l-24.97,3.83c-0.71-1.75-2.49-3.12-5.34-4.13c-2.84-1-5.97-1.5-9.39-1.5
		c-6.4,0-9.6,1.29-9.6,3.87c0,0.83,0.45,1.55,1.35,2.15c0.9,0.6,3.44,1.35,7.61,2.24l15.43,3.33c4.03,0.86,7.78,2.13,11.24,3.81
		c3.47,1.67,5.96,3.51,7.48,5.5c1.52,1.99,2.28,4.12,2.28,6.38c0,5.93-3.85,10.83-11.56,14.69c-7.71,3.87-17.98,5.8-30.84,5.8
		c-11,0-20.59-1.35-28.77-4.04c-8.18-2.69-13.88-6.81-17.11-12.34l28.03-3.31c2.42,4.16,8.39,6.23,17.93,6.23
		c3.98,0,6.86-0.44,8.64-1.31c1.78-0.87,2.67-1.87,2.67-2.99c0-0.72-0.34-1.35-1.03-1.89c-0.69-0.54-1.42-0.94-2.2-1.18
		s-4.47-1.1-11.06-2.57c-8.91-1.99-15.16-3.56-18.74-4.72c-3.58-1.16-6.57-2.89-8.97-5.18c-2.4-2.29-3.59-4.98-3.59-8.08
		c0-5.36,3.26-9.89,9.78-13.6c6.52-3.71,16.49-5.56,29.91-5.56c10.24,0,19.02,1.3,26.32,3.91
		C577.88,492.86,582.72,496.42,585.09,500.92z"></path>
</g>
</svg>
