<svg version="1.1" id="Capa_1" xmlns="http://www.w3.org/2000/svg" x="0" y="0" viewBox="0 0 819.23 799.24" style="enable-background:new 0 0 819.23 799.24" xml:space="preserve"><style>.st0{fill:#999}.st1{fill:#3c3c3c}.st3{fill:#fff}</style><ellipse class="st0" cx="407.09" cy="391.9" rx="267" ry="257"/><path class="st0" d="M408.09 112.59c39.31 0 77.42 7.45 113.28 22.13 34.65 14.19 65.78 34.52 92.52 60.41 26.74 25.89 47.73 56.03 62.39 89.59 15.17 34.72 22.86 71.62 22.86 109.68s-7.69 74.96-22.86 109.68c-14.66 33.55-35.65 63.7-62.39 89.59-26.74 25.89-57.87 46.22-92.52 60.41-35.86 14.69-73.97 22.13-113.28 22.13s-77.42-7.45-113.28-22.13c-34.65-14.19-65.78-34.52-92.52-60.41-26.74-25.89-47.73-56.03-62.39-89.59-15.17-34.72-22.86-71.62-22.86-109.68s7.69-74.96 22.86-109.68c14.66-33.55 35.65-63.7 62.39-89.59 26.74-25.89 57.87-46.22 92.52-60.41 35.87-14.68 73.98-22.13 113.28-22.13m0-25.68c-175.39 0-317.57 137.67-317.57 307.5s142.18 307.5 317.57 307.5 317.57-137.67 317.57-307.5-142.18-307.5-317.57-307.5z"/><path class="st1" d="M170.74 422.04c1.81-11.68 5.48-23.07 11.29-34.06l2.31-4.08c.82-1.35 1.69-2.66 2.55-4.01.88-1.33 1.84-2.62 2.78-3.94.95-1.31 2.02-2.55 3.04-3.83 4.21-5.05 9.15-9.78 14.76-13.96 5.6-4.17 11.9-7.75 18.56-10.49 1.67-.67 3.35-1.39 5.05-1.94 1.71-.59 3.42-1.16 5.15-1.63 3.46-1.04 6.95-1.82 10.45-2.44 14.05-2.58 27.8-2.28 40.56-.94 12.8 1.34 24.73 3.85 35.99 6.5 5.62 1.38 11.1 2.72 16.4 4.16l7.86 2.07 7.63 2.05c10.03 2.64 19.5 4.99 28.26 6.61 8.76 1.63 16.77 2.51 23.83 2.45 7.11-.05 15.14-1.02 23.91-2.75 8.77-1.71 18.23-4.19 28.25-6.89l7.62-2.12 7.86-2.14c5.29-1.48 10.77-2.88 16.4-4.3 11.27-2.74 23.22-5.34 36.08-6.73 6.42-.74 13.08-1.08 19.91-1.05 6.83.11 13.88.67 20.93 2.03 1.76.33 3.52.68 5.28 1.12l2.62.66 2.62.77c3.47 1.03 6.91 2.27 10.24 3.71 6.68 2.85 12.93 6.59 18.47 10.86a85.917 85.917 0 0 1 14.49 14.26c4.12 5.12 7.53 10.53 10.37 16.04 5.59 11.08 9.08 22.51 10.74 34.21-4.74-3.61-9.11-7.25-13.68-10.51-4.53-3.28-9-6.34-13.49-9.02-8.98-5.35-17.97-9.05-26.34-10.61-8.4-1.62-16.11-1.19-23.93.34-3.92.79-7.88 1.8-11.95 3.16-4.08 1.27-8.24 2.88-12.53 4.58-17.16 6.95-35.84 16.67-57.26 25.54-10.73 4.46-22.23 8.67-34.84 12-12.59 3.3-26.4 5.7-41.28 5.81-14.92.09-28.8-2.18-41.45-5.35-6.33-1.6-12.4-3.42-18.21-5.43-5.81-2-11.42-4.05-16.8-6.27-21.53-8.71-40.3-18.29-57.61-25.22-4.33-1.69-8.53-3.3-12.66-4.58a104.34 104.34 0 0 0-12.12-3.22c-7.94-1.56-15.76-2.09-24.21-.63-8.43 1.42-17.47 4.89-26.52 10.09-4.53 2.58-9.06 5.56-13.63 8.77-4.55 3.22-8.98 6.79-13.75 10.35z"/><path class="st1" d="M185.55 457.63c-2.33-10.71-2.1-19.87-.86-28.65.35-2.17.75-4.33 1.23-6.44.21-1.08.51-2.1.81-3.13.29-1.04.6-2.07.94-3.07.66-2.04 1.34-4.04 2.19-6.01.87-1.93 1.73-3.9 2.68-5.79 3.96-7.55 9.14-14.58 15.72-20.82 6.57-6.21 14.66-11.64 23.79-15.49 9.09-3.89 19.13-6.04 28.33-6.33 9.15-.26 17.35 1.15 24.11 3.43.85.3 1.7.58 2.56.91l2.44.96c1.68.72 3.16 1.37 4.79 2.18 3.1 1.51 6.25 3.23 9.51 5.02 3.3 1.85 6.76 3.75 10.64 5.83l6.12 3.22c2.17 1.15 4.39 2.21 6.89 3.64-.67 2.73-1.6 5.13-2.63 7.54-1.09 2.24-2.25 4.56-3.59 6.62-2.66 4.13-5.82 7.9-9.23 11.13-3.43 3.3-7.07 6.06-10.75 8.54-1.77 1.22-3.69 2.35-5.42 3.41l-2.67 1.51c-.85.51-1.7.95-2.56 1.42-6.88 3.6-12.36 6.28-16.71 8.44-4.28 2.2-7.51 3.83-11.06 5.28-3.52 1.46-7.42 2.85-12.12 4.43-4.7 1.57-10.12 3.27-16.34 4.91-3.11.88-6.41 1.65-9.93 2.49-1.74.43-3.59.74-5.44 1.15-1.85.4-3.78.76-5.77 1.1-2.01.31-4.03.67-6.15.98-2.1.32-4.31.57-6.58.81-4.59.47-9.32.92-14.94.78z"/><path class="st1" d="M250.47 457.89c-2.33-10.71-2.1-19.87-.86-28.65.35-2.17.75-4.33 1.23-6.44.21-1.08.51-2.1.81-3.13.29-1.04.6-2.07.94-3.07.66-2.04 1.34-4.04 2.19-6.01.87-1.93 1.73-3.9 2.68-5.79 3.96-7.55 9.14-14.58 15.72-20.82 6.57-6.21 14.66-11.64 23.79-15.49 9.09-3.89 19.13-6.04 28.33-6.33 9.15-.26 17.35 1.15 24.11 3.43.85.3 1.7.58 2.56.91l2.44.96c1.68.72 3.16 1.37 4.79 2.18 3.1 1.51 6.25 3.23 9.51 5.02 3.3 1.85 6.76 3.75 10.64 5.83l6.12 3.22c2.17 1.15 4.39 2.21 6.89 3.64-.67 2.73-1.6 5.13-2.63 7.54-1.09 2.24-2.25 4.56-3.59 6.62-2.66 4.13-5.82 7.9-9.23 11.13-3.43 3.3-7.07 6.06-10.75 8.54-1.77 1.22-3.69 2.35-5.42 3.41l-2.67 1.51c-.85.51-1.7.95-2.56 1.42-6.88 3.6-12.36 6.28-16.71 8.44-4.28 2.2-7.51 3.83-11.06 5.28-3.52 1.46-7.42 2.85-12.12 4.43-4.7 1.57-10.12 3.27-16.34 4.91-3.11.88-6.41 1.65-9.93 2.49-1.74.43-3.59.74-5.44 1.15-1.85.4-3.78.76-5.77 1.1-2.01.31-4.03.67-6.15.98-2.1.32-4.31.57-6.58.81-4.6.47-9.32.92-14.94.78z"/><path class="st1" d="M316.35 463.23c-2.33-10.71-2.1-19.87-.86-28.65.35-2.17.75-4.33 1.23-6.44.21-1.08.51-2.1.81-3.13.29-1.04.6-2.07.94-3.07.66-2.04 1.34-4.04 2.19-6.01.87-1.93 1.73-3.9 2.68-5.79 3.96-7.55 9.14-14.58 15.72-20.82 6.57-6.21 14.66-11.64 23.79-15.49 9.09-3.89 19.13-6.04 28.33-6.33 9.15-.26 17.35 1.15 24.11 3.43.85.3 1.7.58 2.56.91l2.44.96c1.68.72 3.16 1.37 4.79 2.18 3.1 1.51 6.25 3.23 9.51 5.02 3.3 1.85 6.76 3.75 10.64 5.83l6.12 3.22c2.17 1.15 4.39 2.21 6.89 3.64-.67 2.73-1.6 5.13-2.63 7.54-1.09 2.24-2.25 4.56-3.59 6.62-2.66 4.13-5.82 7.9-9.23 11.13-3.43 3.3-7.07 6.06-10.75 8.54-1.77 1.22-3.69 2.35-5.42 3.41l-2.67 1.51c-.85.51-1.7.95-2.56 1.42-6.88 3.6-12.36 6.28-16.71 8.44-4.28 2.2-7.51 3.83-11.06 5.28-3.52 1.45-7.42 2.85-12.12 4.43-4.7 1.57-10.12 3.27-16.34 4.91-3.11.88-6.41 1.65-9.93 2.49-1.74.43-3.59.74-5.44 1.15-1.85.4-3.78.76-5.77 1.1-2.01.31-4.03.67-6.15.98-2.1.32-4.31.57-6.58.81-4.6.47-9.32.92-14.94.78z"/><path class="st1" d="M369.07 459.25c.31-2.01.82-3.87 1.39-5.7s1.22-3.6 1.96-5.31c.79-1.68 1.59-3.35 2.49-4.96.44-.81.9-1.61 1.36-2.4.49-.78 1.01-1.54 1.54-2.29 1.05-1.52 2.16-2.99 3.3-4.44 1.23-1.4 2.49-2.78 3.8-4.12.33-.33.65-.68.99-1l1.07-.95c.71-.64 1.46-1.24 2.19-1.86 1.43-1.25 3.1-2.32 4.72-3.41 3.28-2.15 6.97-3.87 10.72-5.15 3.77-1.21 7.53-1.93 11.04-2.25.88-.1 1.71-.15 2.58-.22l2.55-.14 5.08-.18 1.31-.01c.43-.02.85-.06 1.3-.07.89-.02 1.77-.07 2.71-.06 1.83-.07 3.7-.17 5.78-.05-.92 1.79-2 3.46-3.22 5.01-1.25 1.47-2.57 2.98-4.03 4.23-.73.64-1.48 1.25-2.23 1.87-.76.58-1.53 1.13-2.31 1.67-.79.56-1.57 1.05-2.34 1.53-.77.47-1.58.96-2.33 1.39-3.05 1.76-5.81 3.26-8.39 4.72-2.53 1.52-4.99 2.95-7.47 4.57-1.24.82-2.52 1.54-3.78 2.44-.64.42-1.27.86-1.93 1.26l-.99.61-.98.67c-1.3.9-2.67 1.75-4.05 2.58-1.37.91-2.75 1.8-4.21 2.65l-4.42 2.58c-1.5.86-3.09 1.66-4.7 2.46-3.24 1.62-6.56 3.21-10.5 4.33z"/><path class="st1" d="M449.04 458.55c-3.86-1.39-7.07-3.19-10.17-5.01-1.55-.9-3.08-1.8-4.52-2.76l-4.24-2.86c-1.39-.94-2.72-1.93-4.02-2.92-1.33-.93-2.63-1.86-3.87-2.85l-.93-.74-.94-.67c-.63-.44-1.23-.92-1.85-1.38-1.2-.99-2.42-1.79-3.61-2.69-2.37-1.79-4.72-3.37-7.15-5.06-2.48-1.62-5.13-3.31-8.06-5.27-.72-.48-1.49-1.03-2.23-1.54-.73-.53-1.48-1.08-2.23-1.69a54.42 54.42 0 0 1-2.2-1.82c-.71-.68-1.42-1.33-2.1-2.02-1.38-1.34-2.59-2.94-3.74-4.49a30.947 30.947 0 0 1-2.88-5.21c2.09.03 3.95.25 5.76.44.93.05 1.81.16 2.7.24.44.03.86.1 1.29.16l1.31.1 5.06.52 2.53.31c.86.13 1.68.23 2.56.39 3.48.56 7.18 1.53 10.86 2.99 3.66 1.53 7.23 3.49 10.35 5.85 1.55 1.19 3.14 2.38 4.48 3.72.69.67 1.39 1.31 2.06 2l1.01 1.01c.32.34.61.71.92 1.06 1.22 1.42 2.38 2.88 3.52 4.36 1.04 1.53 2.05 3.07 2.99 4.65.48.79.94 1.59 1.38 2.39.41.83.82 1.65 1.2 2.49.78 1.67 1.48 3.39 2.15 5.12.62 1.76 1.15 3.57 1.6 5.43.45 1.83.83 3.73 1.01 5.75z"/><path class="st1" d="M500.77 462.81c-5.62.13-10.35-.32-14.92-.77-2.27-.24-4.48-.49-6.58-.81-2.12-.31-4.14-.67-6.15-.98-1.99-.34-3.92-.7-5.77-1.1-1.85-.42-3.7-.72-5.44-1.15-3.52-.84-6.82-1.6-9.93-2.49-6.22-1.64-11.64-3.35-16.34-4.91-4.71-1.59-8.61-2.98-12.12-4.43-3.55-1.45-6.77-3.09-11.06-5.28-4.35-2.16-9.83-4.84-16.71-8.44-.85-.47-1.71-.91-2.56-1.42l-2.67-1.51c-1.73-1.07-3.65-2.19-5.42-3.41-3.68-2.48-7.32-5.24-10.75-8.54-3.41-3.23-6.57-7-9.23-11.13-1.34-2.06-2.5-4.38-3.59-6.62-1.02-2.41-1.96-4.81-2.63-7.54 2.5-1.43 4.72-2.49 6.89-3.64l6.12-3.22c3.88-2.08 7.33-3.98 10.64-5.83 3.26-1.8 6.41-3.52 9.51-5.02 1.63-.81 3.11-1.46 4.79-2.18l2.44-.96c.86-.34 1.71-.61 2.56-.91 6.77-2.28 14.96-3.69 24.11-3.43 9.2.3 19.24 2.44 28.33 6.33 9.13 3.86 17.22 9.28 23.79 15.49 6.59 6.23 11.76 13.27 15.72 20.82.96 1.89 1.82 3.86 2.68 5.79.85 1.97 1.53 3.97 2.19 6.01.34 1 .65 2.04.94 3.07.3 1.03.6 2.05.81 3.13.48 2.11.88 4.26 1.23 6.44 1.23 8.78 1.45 17.94-.88 28.64z"/><path class="st1" d="M558.61 457.47c-5.62.13-10.35-.32-14.92-.77-2.27-.24-4.48-.49-6.58-.81-2.12-.31-4.14-.67-6.15-.98-1.99-.34-3.92-.7-5.77-1.1-1.85-.42-3.7-.72-5.44-1.15-3.52-.84-6.82-1.6-9.93-2.49-6.22-1.64-11.64-3.35-16.34-4.91-4.71-1.59-8.61-2.98-12.12-4.43-3.55-1.45-6.77-3.09-11.06-5.28-4.35-2.16-9.83-4.84-16.71-8.44-.85-.47-1.71-.91-2.56-1.42l-2.67-1.51c-1.73-1.07-3.65-2.19-5.42-3.41-3.68-2.48-7.32-5.24-10.75-8.54-3.41-3.23-6.57-7-9.23-11.13-1.34-2.06-2.5-4.38-3.59-6.62-1.02-2.41-1.96-4.81-2.63-7.54 2.5-1.43 4.72-2.49 6.89-3.64l6.12-3.22c3.88-2.08 7.33-3.98 10.64-5.83 3.26-1.8 6.41-3.52 9.51-5.02 1.63-.81 3.11-1.46 4.79-2.18l2.44-.96c.86-.34 1.71-.61 2.56-.91 6.77-2.28 14.96-3.69 24.11-3.43 9.2.3 19.24 2.44 28.33 6.33 9.13 3.86 17.22 9.28 23.79 15.49 6.59 6.23 11.76 13.27 15.72 20.82.96 1.89 1.82 3.86 2.68 5.79.85 1.97 1.53 3.97 2.19 6.01.34 1 .65 2.04.94 3.07.3 1.03.6 2.05.81 3.13.48 2.11.88 4.26 1.23 6.44 1.22 8.78 1.45 17.94-.88 28.64z"/><path class="st1" d="M632.5 457.47c-5.62.13-10.35-.32-14.92-.77-2.27-.24-4.48-.49-6.58-.81-2.12-.31-4.14-.67-6.15-.98-1.99-.34-3.92-.7-5.77-1.1-1.85-.42-3.7-.72-5.44-1.15-3.52-.84-6.82-1.6-9.93-2.49-6.22-1.64-11.64-3.35-16.34-4.91-4.71-1.59-8.61-2.98-12.12-4.43-3.55-1.45-6.77-3.09-11.06-5.28-4.35-2.16-9.83-4.84-16.71-8.44-.85-.47-1.71-.91-2.56-1.42l-2.67-1.51c-1.73-1.07-3.65-2.19-5.42-3.41-3.68-2.48-7.32-5.24-10.75-8.54-3.41-3.23-6.57-7-9.23-11.13-1.34-2.06-2.5-4.38-3.59-6.62-1.02-2.41-1.96-4.81-2.63-7.54 2.5-1.43 4.72-2.49 6.89-3.64l6.12-3.22c3.88-2.08 7.33-3.98 10.64-5.83 3.26-1.8 6.41-3.52 9.51-5.02 1.63-.81 3.11-1.46 4.79-2.18l2.44-.96c.86-.34 1.71-.61 2.56-.91 6.77-2.28 14.96-3.69 24.11-3.43 9.2.3 19.24 2.44 28.33 6.33 9.13 3.86 17.22 9.28 23.79 15.49 6.59 6.23 11.76 13.27 15.72 20.82.96 1.89 1.82 3.86 2.68 5.79.85 1.97 1.53 3.97 2.19 6.01.34 1 .65 2.04.94 3.07.3 1.03.6 2.05.81 3.13.48 2.11.88 4.26 1.23 6.44 1.22 8.78 1.45 17.94-.88 28.64zM397.29 459.59c-5.13-7.71-7.11-15.31-7.67-23.01-.12-1.93-.12-3.85-.07-5.77.17-1.94.38-3.89.71-5.81.08-.48.14-.97.24-1.45l.36-1.46c.23-.98.54-1.93.8-2.9.53-1.91 1.35-3.86 2.19-5.75.77-1.91 1.94-3.75 3.01-5.57 1.13-1.8 2.47-3.51 3.81-5.13 2.8-3.17 5.88-5.78 8.95-7.72 2.98-1.93 6.08-3.36 9.3-4.86l1.28-.55c.41-.19.8-.41 1.25-.59.88-.38 1.73-.79 2.69-1.17 1.83-.82 3.72-1.69 6.04-2.48.7 2.25 1.07 4.46 1.22 6.64.08 2.15.04 4.36-.27 6.43-.15 1.05-.34 2.08-.55 3.12-.23 1-.49 1.98-.78 2.96-.15.48-.28.99-.45 1.46l-.46 1.36c-.32.88-.67 1.82-.99 2.65-1.32 3.37-2.51 6.16-3.61 8.67-1.02 2.53-2.08 4.83-3.19 7.33-.54 1.26-1.22 2.41-1.79 3.77-.32.65-.61 1.31-.97 1.94l-.52.96c-.15.34-.33.68-.5 1.03-.66 1.37-1.45 2.72-2.27 4.08-.78 1.42-1.59 2.84-2.53 4.25-.44.71-.97 1.41-1.44 2.13a62.202 62.202 0 0 1-4.91 6.57c-1.25 1.47-2.48 2.97-3.95 4.45-1.45 1.48-3.01 2.96-4.93 4.42z"/><path class="st1" d="M419.76 459.12c-1.92-1.46-3.48-2.94-4.93-4.43-1.47-1.48-2.71-2.98-3.95-4.45a62.202 62.202 0 0 1-3.42-4.38c-.53-.73-1.01-1.46-1.49-2.19-.47-.73-.99-1.42-1.44-2.13-.94-1.41-1.75-2.84-2.53-4.25-.82-1.36-1.6-2.71-2.27-4.08-.17-.34-.35-.68-.5-1.03l-.52-.96c-.36-.64-.65-1.3-.97-1.94-.57-1.36-1.25-2.51-1.79-3.77-1.11-2.49-2.18-4.79-3.19-7.33-1.09-2.51-2.29-5.3-3.61-8.67-.33-.83-.67-1.76-.99-2.65l-.46-1.36c-.16-.47-.3-.97-.45-1.46-.29-.97-.55-1.96-.78-2.96-.22-1.04-.4-2.08-.55-3.12-.32-2.07-.35-4.28-.27-6.43.14-2.18.51-4.4 1.22-6.64 2.32.79 4.21 1.67 6.04 2.48.96.38 1.82.79 2.69 1.17.45.18.83.4 1.25.59l1.28.55c3.23 1.5 6.32 2.93 9.3 4.86 3.06 1.93 6.14 4.55 8.95 7.72 1.35 1.62 2.69 3.33 3.81 5.13 1.07 1.82 2.24 3.66 3.01 5.57.84 1.89 1.66 3.84 2.19 5.75.27.97.57 1.93.8 2.9l.36 1.46c.1.48.16.96.24 1.45.33 1.92.54 3.87.71 5.81.05 1.92.05 3.84-.07 5.77-.55 7.71-2.53 15.31-7.67 23.02z"/><path class="st3" d="m367.37 230.68-26.43 95.23h-59.21l26.43-95.23h-43.61l7.92-28.34H420.1l-7.77 28.34h-44.96zM553.25 296.3l-8.07 29.61H405.84l34.05-123.21h61.93l-25.87 93.61h77.3zM302.05 510.8l-3.56 12.81h-31.1l-6.21 22.36h-28.2l16.22-58.69h68.43l-3.7 13.2h-40.11l-2.87 10.32h31.1zM357.62 533.98h-25.99l-9.07 11.99H298.5l44.94-58.69h30.46l15.08 58.69h-28.65l-2.71-11.99zm-1.73-12.13-3.86-16.98-12.79 16.98h16.65zM496.04 487.29l-16.22 58.69h-21.58l-18.62-22.53c-5.07-6.16-8.27-11.04-9.61-14.62.09.86.14 1.53.14 2.02 0 1.61-.36 3.73-1.07 6.36l-7.97 28.76h-23.66l16.22-58.69h26.15l10.67 13.59c7.39 9.4 12.21 16.35 14.44 20.85-.14-1.18-.21-2.05-.21-2.62 0-1.66.64-4.85 1.92-9.55l6.18-22.27h23.22zM585.09 500.92l-24.97 3.83c-.71-1.75-2.49-3.12-5.34-4.13-2.84-1-5.97-1.5-9.39-1.5-6.4 0-9.6 1.29-9.6 3.87 0 .83.45 1.55 1.35 2.15.9.6 3.44 1.35 7.61 2.24l15.43 3.33c4.03.86 7.78 2.13 11.24 3.81 3.47 1.67 5.96 3.51 7.48 5.5 1.52 1.99 2.28 4.12 2.28 6.38 0 5.93-3.85 10.83-11.56 14.69-7.71 3.87-17.98 5.8-30.84 5.8-11 0-20.59-1.35-28.77-4.04s-13.88-6.81-17.11-12.34l28.03-3.31c2.42 4.16 8.39 6.23 17.93 6.23 3.98 0 6.86-.44 8.64-1.31 1.78-.87 2.67-1.87 2.67-2.99 0-.72-.34-1.35-1.03-1.89-.69-.54-1.42-.94-2.2-1.18s-4.47-1.1-11.06-2.57c-8.91-1.99-15.16-3.56-18.74-4.72-3.58-1.16-6.57-2.89-8.97-5.18-2.4-2.29-3.59-4.98-3.59-8.08 0-5.36 3.26-9.89 9.78-13.6 6.52-3.71 16.49-5.56 29.91-5.56 10.24 0 19.02 1.3 26.32 3.91 7.29 2.6 12.13 6.16 14.5 10.66z"/></svg>